<svg viewBox="0 0 1130 434" xmlns="http://www.w3.org/2000/svg" fill-rule="evenodd" clip-rule="evenodd" stroke-linejoin="round" stroke-miterlimit="2"><path d="M195.389,302.529L210.777,352.891L180,352.891L195.389,302.529Z" fill="#cf57ff" transform="matrix(-.3028 .16906 -.16906 -.3028 439.162 382.44)"/><path d="M195.389,302.529L210.777,352.891L180,352.891L195.389,302.529Z" fill="#cf57ff" transform="matrix(-.3359 -.08623 -.08623 .3359 331.956 216.303)"/><path d="M195.389,302.529L210.777,352.891L180,352.891L195.389,302.529Z" fill="#ff9157" transform="matrix(-.27854 -.18607 .10281 -.1539 320.91 457.41)"/><path d="M195.389,302.529L210.777,352.891L180,352.891L195.389,302.529Z" fill="#ff9157" transform="matrix(-.22187 .25097 .13867 .12259 197.968 178.786)"/><path d="M195.389,302.529L210.777,352.891L180,352.891L195.389,302.529Z" fill="#cf57ff" transform="matrix(-.22187 .25097 .13867 .12259 413.124 70.97)"/><path d="M180,302.529L210.777,352.891L180,352.891L180,302.529Z" fill="#ff9157" transform="matrix(-.22187 .25097 .13867 .12259 459.033 160.91)"/><path d="M195.389,302.529L210.777,352.891L180,352.891L195.389,302.529Z" fill="#ff9157" transform="matrix(-.19919 .03382 .02805 .16521 293.519 86.39)"/><path d="M195.389,302.529L210.777,352.891L180,352.891L195.389,302.529Z" fill="#7cff8c" transform="matrix(-.22641 .26269 -.19227 -.16572 430.12 277.71)"/><path d="M195.389,302.529L210.777,352.891L180,352.891L195.389,302.529Z" fill="#7cff8c" transform="matrix(-.28593 -.19624 -.14364 .20928 349.402 324.684)"/><path d="M195.389,302.529L210.777,352.891L180,352.891L195.389,302.529Z" fill="#7cfaff" transform="matrix(-.29691 -.12197 .00073 -.15254 409.401 443.99)"/><path d="M195.389,302.529L210.777,352.891L180,352.891L195.389,302.529Z" fill="#7cfaff" transform="matrix(-.25597 .19367 .03962 .1473 286.956 169.189)"/><path d="M195.389,302.529L210.777,352.891L180,352.891L195.389,302.529Z" fill="#7cfaff" transform="matrix(-.05752 .3158 .12882 .08169 183.582 -51.173)"/><path d="M195.389,302.529L210.777,352.891L180,352.891L195.389,302.529Z" fill="#ffe066" transform="matrix(-.33996 .07162 -.04272 .23836 440.711 11.062)"/><path d="M195.389,302.529L210.777,352.891L180,352.891L195.389,302.529Z" fill="#7cfaff" transform="matrix(-.31751 -.04709 -.0774 .13144 267.103 149.123)"/><path d="M195.389,302.529L210.777,352.891L180,352.891L195.389,302.529Z" fill="#ffe066" transform="matrix(-.21503 .23831 .06659 .13724 684.477 125.1)"/><path d="M195.389,302.529L210.777,352.891L180,352.891L195.389,302.529Z" fill="#ffe066" transform="matrix(-.11022 .30147 .11311 .10235 656.525 266.034)"/><path d="M195.389,302.529L210.777,352.891L180,352.891L195.389,302.529Z" fill="#ffe066" transform="matrix(-.27958 -.2052 .10778 -.14686 296.754 407.08)"/><path d="M195.389,302.529L210.777,352.891L180,352.891L195.389,302.529Z" fill="#ffe066" transform="matrix(-.21799 .26972 .14168 .1145 187.45 233.615)"/><path d="M195.389,302.529L210.777,352.891L180,352.891L195.389,302.529Z" fill="#ff666c" transform="matrix(-.0222 -.2173 .15553 .05532 202.093 382.361)"/><path d="M195.389,302.529L210.777,352.891L180,352.891L195.389,302.529Z" fill="#ff666c" transform="matrix(-.27129 -.1124 .18378 -.16595 1003.572 287.66)"/><path d="M195.389,302.529L210.777,352.891L180,352.891L195.389,302.529Z" fill="#7cfaff" transform="matrix(-.29692 .20748 -.03036 -.1808 1112.328 55.632)"/><path d="M195.389,302.529L210.777,352.891L180,352.891L195.389,302.529Z" fill="#ff666c" transform="matrix(.03396 .21577 .13627 -.09316 102.227 281.66)"/><path d="M195.389,302.529L210.777,352.891L180,352.891L195.389,302.529Z" fill="#ff666c" transform="matrix(.1731 .13322 .0348 -.16136 322.415 245.511)"/><path d="M195.389,302.529L210.777,352.891L180,352.891L195.389,302.529Z" fill="#cf57ff" transform="matrix(-.05147 .2015 -.2015 -.05147 229.486 323.948)"/><path d="M195.389,302.529L210.777,352.891L180,352.891L195.389,302.529Z" fill="#cf57ff" transform="matrix(-.17618 .1105 .1105 .17618 110.285 300.879)"/><path d="M195.389,302.529L210.777,352.891L180,352.891L195.389,302.529Z" fill="#ff9157" transform="matrix(-.19593 .04434 -.0245 -.10826 210.597 405.224)"/><path d="M195.389,302.529L210.777,352.891L180,352.891L195.389,302.529Z" fill="#ff9157" transform="matrix(-.19593 .04434 -.0245 -.10826 185.108 221.941)"/><path d="M195.389,302.529L210.777,352.891L180,352.891L195.389,302.529Z" fill="#ff9157" transform="matrix(.01756 .20011 .11057 -.0097 38.65 343.669)"/><path d="M195.389,302.529L210.777,352.891L180,352.891L195.389,302.529Z" fill="#7cff8c" transform="matrix(.02079 .20693 -.15146 .01521 177.521 283.532)"/><path d="M195.389,302.529L210.777,352.891L180,352.891L195.389,302.529Z" fill="#7cff8c" transform="matrix(-.2034 .04335 .03173 .14888 164.629 338.034)"/><path d="M195.389,302.529L210.777,352.891L180,352.891L195.389,302.529Z" fill="#7cfaff" transform="matrix(-.17563 .07879 -.06605 -.0633 241.293 361.192)"/><path d="M195.389,302.529L210.777,352.891L180,352.891L195.389,302.529Z" fill="#7cfaff" transform="matrix(-.17563 .07879 -.06605 -.0633 1118.059 363.393)"/><path d="M195.389,302.529L210.777,352.891L180,352.891L195.389,302.529Z" fill="#ff666c" transform="matrix(-.02144 .1913 .08043 .04358 71.213 301.002)"/><circle cx="342.015" cy="131.577" r="7.5" fill="#7cff8c" transform="matrix(.3468 0 0 .3468 124.813 113.428)"/><circle cx="342.015" cy="131.577" r="7.5" fill="#7cff8c" transform="matrix(.3468 0 0 .3468 475.72 90.5)"/><circle cx="342.015" cy="131.577" r="7.5" fill="#ff666c" transform="matrix(.3468 0 0 .3468 5.515 98.17)"/><circle cx="342.015" cy="131.577" r="7.5" fill="#ccba63" transform="matrix(.3468 0 0 .3468 78.96 15.008)"/><circle cx="342.015" cy="131.577" r="7.5" fill="#ff666c" transform="scale(.3468) rotate(63.917 174.745 1346.542)"/><circle cx="342.015" cy="131.577" r="7.5" fill="#7cff8c" transform="matrix(.3468 0 0 .3468 178.568 209.224)"/><circle cx="342.015" cy="131.577" r="7.5" fill="#ff666c" transform="matrix(.3468 0 0 .3468 388.481 121.498)"/><circle cx="342.015" cy="131.577" r="7.5" fill="#7cff8c" transform="matrix(.3468 0 0 .3468 887.556 164.82)"/><circle cx="342.015" cy="131.577" r="7.5" fill="#ff666c" transform="matrix(.3468 0 0 .3468 88.053 326.708)"/><circle cx="342.015" cy="131.577" r="7.5" fill="#7cfaff" transform="matrix(.3468 0 0 .3468 105.74 201.167)"/><circle cx="342.015" cy="131.577" r="7.5" fill="#7cfaff" transform="matrix(.3468 0 0 .3468 292.194 366.1)"/><circle cx="342.015" cy="131.577" r="7.5" fill="#7cfaff" transform="matrix(.3468 0 0 .3468 409.93 267.717)"/><circle cx="342.015" cy="131.577" r="7.5" fill="#ffe066" transform="matrix(.3468 0 0 .3468 50.252 183.48)"/><circle cx="342.015" cy="131.577" r="7.5" fill="#ffe066" transform="matrix(.3468 0 0 .3468 936.521 283.695)"/><circle cx="342.015" cy="131.577" r="7.5" fill="#cf57ff" transform="matrix(.3468 0 0 .3468 .66 364.854)"/><circle cx="342.015" cy="131.577" r="7.5" fill="#cf57ff" transform="matrix(.3468 0 0 .3468 470.519 144.756)"/><circle cx="342.015" cy="131.577" r="7.5" fill="#ffe066" transform="matrix(.28203 0 0 .28203 723.402 146.136)"/><circle cx="342.015" cy="131.577" r="7.5" fill="#ff666c" transform="matrix(.28203 0 0 .28203 777.028 306.239)"/><circle cx="342.015" cy="131.577" r="7.5" fill="#ffe066" transform="matrix(.3468 0 0 .3468 103.139 350.635)"/><path d="M195.389,302.529L210.777,352.891L180,352.891L195.389,302.529Z" fill="#ffe066" transform="matrix(-.20467 .0369 -.01938 -.10751 360.462 195.164)"/><path d="M195.389,302.529L210.777,352.891L180,352.891L195.389,302.529Z" fill="#ffe066" transform="matrix(-.20467 .0369 -.01938 -.10751 178.733 394.95)"/><path d="M195.389,302.529L210.777,352.891L180,352.891L195.389,302.529Z" fill="#ffe066" transform="matrix(-.20467 .0369 -.01938 -.10751 444.378 270.798)"/><path d="M195.389,302.529L210.777,352.891L180,352.891L195.389,302.529Z" fill="#ffe066" transform="matrix(.02732 .20617 .1083 -.01435 58.155 370.88)"/><path d="M195.389,302.529L210.777,352.891L180,352.891L195.389,302.529Z" fill="#ff666c" transform="matrix(-.10368 -.08005 .08827 -.04481 128.9 425.92)"/><path d="M195.389,302.529L210.777,352.891L180,352.891L195.389,302.529Z" fill="#ff666c" transform="matrix(.10787 .0743 .01574 -.09773 43.87 427.786)"/><path fill="#ffe066" d="M1804.81 152.91H1819.81V181.91H1804.81z" transform="scale(-.3468) rotate(-54.106 -294.226 1882.913)"/><path fill="#ffe066" d="M1804.81 152.91H1819.81V181.91H1804.81z" transform="scale(-.3468) rotate(-81.259 -208.955 1746.17)"/><path fill="#ffe066" d="M1804.81 152.91H1819.81V181.91H1804.81z" transform="scale(.3468) rotate(61.919 1747.75 465.164)"/><path fill="#ffe066" d="M1804.81 152.91H1819.81V181.91H1804.81z" transform="matrix(-.23564 .12704 -.12857 -.23847 892.938 175.051)"/><path fill="#ff9157" d="M1804.81 152.91H1819.81V181.91H1804.81z" transform="scale(-.3468) rotate(-54.106 -792.601 3151.315)"/><path fill="#ff666c" d="M1804.81 152.91H1819.81V181.91H1804.81z" transform="matrix(.12457 -.32365 -.32365 -.12457 10.07 916.221)"/><path fill="#7cfaff" d="M1923.81 238.91H1939.81V253.91H1923.81z" transform="scale(-.3468) rotate(-54.106 -281.104 1892.429)"/><path fill="#7cfaff" d="M1923.81 238.91H1939.81V253.91H1923.81z" transform="scale(-.3468) rotate(-54.106 -1514.035 4190.808)"/><path fill="#7cfaff" d="M1923.81 238.91H1939.81V253.91H1923.81z" transform="scale(-.3468) rotate(-54.106 -704.314 2024.447)"/><path fill="#7cfaff" d="M1923.81 238.91H1939.81V253.91H1923.81z" transform="matrix(.12457 -.32365 -.32365 -.12457 10.07 916.221)"/><path fill="#ff666c" d="M1923.81 238.91H1939.81V253.91H1923.81z" transform="scale(.3468 -.3468) rotate(68.949 1966.394 -1026.538)"/><path fill="#ff666c" d="M1923.81 238.91H1939.81V253.91H1923.81z" transform="scale(.3468 -.3468) rotate(68.949 2581.296 28.163)"/><path fill="#ff666c" d="M1923.81 238.91H1939.81V253.91H1923.81z" transform="scale(.3468 -.3468) rotate(68.949 2715.952 -188.166)"/><path fill="#ff9157" d="M1931.81 65.91H1986.81V80.91H1931.81z" transform="scale(-.3468) rotate(-54.106 -281.593 1892.179)"/><path fill="#ff9157" d="M1931.81 65.91H1986.81V80.91H1931.81z" transform="matrix(.05725 -.14874 -.308 -.11855 327.053 499.21)"/><path fill="#ff9157" d="M1931.81 65.91H1986.81V80.91H1931.81z" transform="matrix(.12457 -.32365 -.32365 -.12457 10.07 916.221)"/><path fill="#ff9157" d="M1931.81 65.91H1986.81V80.91H1931.81z" transform="scale(.3468 -.3468) rotate(68.949 3316.043 9.788)"/><path fill="#7cfaff" d="M1931.81 65.91H1986.81V80.91H1931.81z" transform="matrix(.00726 -.25573 -.31893 -.00905 90.43 898.762)"/><path fill="#7cfaff" d="M1931.81 65.91H1986.81V80.91H1931.81z" transform="matrix(.17967 -.1345 -.28797 -.38465 64.233 591.044)"/><path fill="#ff666c" d="M1931.81 65.91H1986.81V80.91H1931.81z" transform="matrix(-.0801 -.1071 -.1214 .0908 358.973 332.881)"/><path fill="#ff666c" d="M1931.81 65.91H1986.81V80.91H1931.81z" transform="matrix(-.1277 .03974 .04505 .14475 366.164 -57.484)"/><path fill="#ffe066" d="M1779.81 321.91H1795.81V347.067H1779.81z" transform="scale(-.3468) rotate(-54.106 -281.593 1892.179)"/><path fill="#ffe066" d="M1779.81 321.91H1795.81V347.067H1779.81z" transform="matrix(-.33395 -.0935 .0935 -.33395 628.268 649.078)"/><path fill="#ffe066" d="M1779.81 321.91H1795.81V347.067H1779.81z" transform="scale(-.3468) rotate(-54.106 -753.813 1840.324)"/><path fill="#ffe066" d="M1779.81 321.91H1795.81V347.067H1779.81z" transform="matrix(.12457 -.32365 -.32365 -.12457 10.07 916.221)"/><path fill="#ffe066" d="M1779.81 321.91H1795.81V347.067H1779.81z" transform="scale(.3468 -.3468) rotate(68.949 3119.415 846.259)"/><path fill="#7cfaff" d="M1779.81 321.91H1795.81V347.067H1779.81z" transform="scale(-.3468 .3468) rotate(-44.541 106.656 4310.923)"/><path fill="#cf57ff" d="M1939.81 353.91H1973.81V379.91H1939.81z" transform="matrix(-.1103 .1524 -.23674 -.17133 380.138 71.973)"/><path fill="#cf57ff" d="M1939.81 353.91H1973.81V379.91H1939.81z" transform="matrix(-.06951 .09605 -.31792 -.23008 928.753 259.962)"/><path fill="#cf57ff" d="M1939.81 353.91H1973.81V379.91H1939.81z" transform="matrix(.12457 -.32365 -.32365 -.12457 10.07 916.221)"/><path fill="#cf57ff" d="M1939.81 353.91H1973.81V379.91H1939.81z" transform="matrix(.14728 -.38265 -.17067 -.06569 187.83 1189.359)"/><path fill="#cf57ff" d="M1939.81 353.91H1973.81V379.91H1939.81z" transform="matrix(-.10575 -.21708 -.21865 .10652 1130.404 647.829)"/><path fill="#cf57ff" d="M1939.81 353.91H1973.81V379.91H1939.81z" transform="matrix(.05855 -.15213 -.20743 -.07984 653.477 410.286)"/><path fill="#cf57ff" d="M1939.81 353.91H1973.81V379.91H1939.81z" transform="matrix(.2092 -.10492 -.11081 -.22094 -160.282 654.462)"/><path fill="#cf57ff" d="M1939.81 353.91H1973.81V379.91H1939.81z" transform="matrix(.14075 -.0706 -.0658 -.1312 198.662 238.621)"/><path fill="#7cff8c" d="M2075.81 193.91H2111.81V207.91H2075.81z" transform="scale(-.3468) rotate(-54.106 -281.593 1892.179)"/><path fill="#ffe066" d="M2075.81 193.91H2111.81V207.91H2075.81z" transform="scale(.3468) rotate(65.208 1121.372 -412.75)"/><path fill="#7cff8c" d="M2075.81 193.91H2111.81V207.91H2075.81z" transform="matrix(.12457 -.32365 -.32365 -.12457 10.07 916.221)"/><path fill="#ff9157" d="M2075.81 193.91H2111.81V207.91H2075.81z" transform="scale(.3468 -.3468) rotate(25.071 3603.116 971.512)"/><g><path d="M-32,-35.998L0,-35.998L12,0L-44,0L-32,-35.998Z" fill="#448fd5" fill-rule="nonzero" transform="matrix(.75778 .75778 1.96951 -1.96951 79.667 414.864)"/><path d="M-31.999,-3.999L3.999,-3.999L3.999,-31.999L-31.999,-19.999L-31.999,-3.999Z" fill="#3974ab" fill-rule="nonzero" transform="matrix(1.96951 -1.96951 -.75778 -.75778 56.636 407.586)"/><path fill="#2b649a" d="M5072.1 2055H5100.1V2059H5072.1z" transform="matrix(.95918 .95918 2.34064 -2.34064 -9610.799 347.706)"/><path fill="#3974ab" d="M5100.1 2055H5128.1V2059H5100.1z" transform="rotate(45 -5400.791 -11003.304) scale(1.27361 -3.31016)"/></g></svg>