<svg viewBox="0 0 123 123" xmlns="http://www.w3.org/2000/svg" fill-rule="evenodd" clip-rule="evenodd" stroke-linejoin="round" stroke-miterlimit="2"><g opacity=".1"><path d="M0,47.946C0,50.155 -1.791,51.946 -4,51.946C-6.209,51.946 -8,50.155 -8,47.946C-8,45.737 -6.209,43.946 -4,43.946C-1.791,43.946 0,45.737 0,47.946M-12.236,31.973L-12.236,55.973L11.764,55.973L51.764,15.973L28.764,-8.027L-12.236,31.973Z" fill-rule="nonzero" transform="rotate(76.049 16.938 95.514) scale(1.18506)"/><path d="M0,-64L-41,-24L-41,0L-35.693,-5.321C-36.352,-6.034 -36.764,-6.979 -36.764,-8.027C-36.764,-10.236 -34.973,-12.027 -32.764,-12.027C-31.716,-12.027 -30.771,-11.615 -30.057,-10.957L11.249,-52.262L0,-64Z" fill-rule="nonzero" transform="rotate(76.049 -42.516 84.141) scale(1.18506)"/><path d="M0.036,-0.233L0.177,-0.247C0.185,-0.199 0.202,-0.165 0.228,-0.143C0.254,-0.12 0.289,-0.109 0.333,-0.109C0.38,-0.109 0.415,-0.119 0.438,-0.139C0.462,-0.159 0.474,-0.182 0.474,-0.208C0.474,-0.225 0.469,-0.239 0.459,-0.251C0.449,-0.263 0.431,-0.273 0.407,-0.282C0.39,-0.288 0.351,-0.299 0.291,-0.313C0.214,-0.333 0.159,-0.356 0.128,-0.384C0.084,-0.424 0.062,-0.472 0.062,-0.528C0.062,-0.565 0.072,-0.599 0.093,-0.631C0.114,-0.662 0.143,-0.687 0.182,-0.703C0.221,-0.72 0.268,-0.728 0.323,-0.728C0.413,-0.728 0.481,-0.708 0.526,-0.669C0.572,-0.63 0.595,-0.577 0.598,-0.511L0.453,-0.505C0.447,-0.542 0.434,-0.568 0.413,-0.584C0.393,-0.6 0.362,-0.608 0.322,-0.608C0.28,-0.608 0.247,-0.6 0.223,-0.583C0.208,-0.571 0.2,-0.557 0.2,-0.538C0.2,-0.521 0.207,-0.507 0.222,-0.495C0.24,-0.479 0.284,-0.463 0.354,-0.447C0.425,-0.43 0.477,-0.413 0.51,-0.395C0.544,-0.378 0.571,-0.353 0.59,-0.323C0.609,-0.292 0.618,-0.254 0.618,-0.208C0.618,-0.167 0.607,-0.129 0.584,-0.093C0.561,-0.057 0.529,-0.031 0.487,-0.013C0.446,0.004 0.394,0.013 0.332,0.013C0.241,0.013 0.172,-0.008 0.123,-0.05C0.075,-0.092 0.046,-0.153 0.036,-0.233Z" fill-rule="nonzero" transform="rotate(30.757 -111.58 137.077) scale(19.59299)"/><path d="M0.718,0L0.561,0L0.499,-0.163L0.212,-0.163L0.153,0L0,0L0.279,-0.716L0.432,-0.716L0.718,0ZM0.452,-0.283L0.354,-0.549L0.257,-0.283L0.452,-0.283Z" fill-rule="nonzero" transform="rotate(30.757 -118.113 160.833) scale(19.59299)"/><path d="M0.077,0L0.077,-0.71L0.221,-0.71L0.221,-0.121L0.581,-0.121L0.581,0L0.077,0Z" fill-rule="nonzero" transform="rotate(30.757 -125.188 186.555) scale(19.59299)"/><path d="M0.073,0L0.073,-0.716L0.604,-0.716L0.604,-0.595L0.217,-0.595L0.217,-0.436L0.577,-0.436L0.577,-0.315L0.217,-0.315L0.217,-0.121L0.617,-0.121L0.617,0L0.073,0Z" fill-rule="nonzero" transform="rotate(30.757 -131.172 208.312) scale(19.59299)"/><g><path d="M38.974,46.58C38.974,46.58 39.55,45.414 39.908,45.025C40.232,44.671 41.119,44.247 41.119,44.247L41.217,44.771C41.217,44.771 40.458,45.121 40.178,45.418C39.819,45.798 39.064,47.055 39.064,47.055L38.974,46.58Z" transform="matrix(1 0 0 1 5.76 7.83)"/><path d="M38.991,46.394C38.991,46.394 39.55,45.414 39.908,45.025C40.232,44.671 41.116,44.265 41.116,44.265L41.217,44.771C41.217,44.771 40.458,45.121 40.178,45.418C39.819,45.798 39.104,46.913 39.104,46.913L38.991,46.394Z" transform="scale(-1 1) rotate(18.153 -26.31 -231.963)"/><path d="M7.778,21.077C7.778,21.077 6.753,19.918 6.519,19.496C6.364,19.215 6.373,19.015 6.379,18.543C6.385,18.012 6.637,16.734 6.748,16.318C6.783,16.189 6.943,15.966 7.046,16.05C7.141,16.127 7.287,16.267 7.45,16.5C7.641,16.77 7.851,17.142 7.972,17.315C8.123,17.529 8.397,17.976 8.397,17.976L7.778,21.077Z" transform="matrix(1 0 0 1 5.76 7.83)"/><path d="M6.61,19.653C7.418,20.785 9.479,23.129 11.414,24.102C12.514,24.654 14.256,25.328 16.946,25.934C21.415,26.94 26.613,27.514 29.941,28.892C32.493,29.95 34.195,31.935 35.284,34.015C36.596,36.521 37.868,41.13 37.868,41.13L38.344,43.408C38.344,43.408 36.93,44.894 36.241,46.425C35.593,47.865 35.708,49.202 35.708,49.202L38.189,48.588C38.189,48.588 38.264,47.848 38.548,47.294C38.838,46.728 38.965,46.61 38.965,46.61C38.965,46.61 39.302,48.792 39.453,49.914C39.621,51.16 39.973,54.176 39.973,54.176L39.364,55.009C39.364,55.009 40.589,56.259 41.247,56.27C42.131,56.284 42.662,55.557 42.603,54.968C42.387,52.821 42.184,51.013 41.868,48.575C41.68,47.124 41.105,44.254 41.105,44.254C41.105,44.254 41.638,43.918 41.888,43.824C42.099,43.744 42.5,43.694 42.5,43.694C42.5,43.694 42.824,45.42 43.014,48.727C43.12,50.571 43.246,53.618 43.521,54.735C43.649,55.254 44.27,55.412 44.665,55.482C45.06,55.552 45.494,55.06 45.824,54.769C46.157,54.475 46.663,53.67 46.663,53.67L45.845,53.062L45.237,45.009C45.237,45.009 45.711,45.319 45.934,45.549C46.168,45.79 46.678,46.51 46.678,46.51L49.098,45.916C49.098,45.916 47.799,43.931 47.082,43.277C46.43,42.682 44.817,41.905 44.817,41.905C44.817,41.905 43.417,23.796 35.502,15.581C31.602,11.534 24.235,5.462 17.326,1.511C10.322,-2.494 3.776,-4.354 -0.368,-5.195C-0.945,-5.313 -3.797,-5.5 -3.888,-5.025C-3.979,-4.551 -2.507,-3.535 -2.003,-3.484C-0.587,-3.342 1.555,-2.894 3.203,-2.343C4.656,-1.857 11.966,0.804 17.024,3.624C23.387,7.171 31.044,14.639 34.153,17.683C40.081,23.486 42.259,41.213 42.259,41.213L40.56,41.674C40.56,41.674 38.125,31.355 34.08,28.525C32.301,27.28 29.921,25.968 25.171,24.998C18.89,23.715 15.48,23.349 12.483,21.881C11.107,21.207 9.793,19.876 8.748,18.476C8.056,17.548 7.483,16.393 7.09,16.089C6.74,15.819 6.624,16.868 6.565,17.305C6.485,17.899 6.155,19.016 6.61,19.653Z" transform="matrix(1 0 0 1 5.76 7.83)"/></g></g><path d="M0,47.946C0,50.155 -1.791,51.946 -4,51.946C-6.209,51.946 -8,50.155 -8,47.946C-8,45.737 -6.209,43.946 -4,43.946C-1.791,43.946 0,45.737 0,47.946M-12.236,31.973L-12.236,55.973L11.764,55.973L51.764,15.973L28.764,-8.027L-12.236,31.973Z" fill="#3974ab" fill-rule="nonzero" transform="rotate(76.049 19.059 87.921) scale(1.18506)"/><path d="M0,-64L-41,-24L-41,0L-35.693,-5.321C-36.352,-6.034 -36.764,-6.979 -36.764,-8.027C-36.764,-10.236 -34.973,-12.027 -32.764,-12.027C-31.716,-12.027 -30.771,-11.615 -30.057,-10.957L11.249,-52.262L0,-64Z" fill="#448fd5" fill-rule="nonzero" transform="rotate(76.049 -40.396 76.548) scale(1.18506)"/><path d="M0.036,-0.233L0.177,-0.247C0.185,-0.199 0.202,-0.165 0.228,-0.143C0.254,-0.12 0.289,-0.109 0.333,-0.109C0.38,-0.109 0.415,-0.119 0.438,-0.139C0.462,-0.159 0.474,-0.182 0.474,-0.208C0.474,-0.225 0.469,-0.239 0.459,-0.251C0.449,-0.263 0.431,-0.273 0.407,-0.282C0.39,-0.288 0.351,-0.299 0.291,-0.313C0.214,-0.333 0.159,-0.356 0.128,-0.384C0.084,-0.424 0.062,-0.472 0.062,-0.528C0.062,-0.565 0.072,-0.599 0.093,-0.631C0.114,-0.662 0.143,-0.687 0.182,-0.703C0.221,-0.72 0.268,-0.728 0.323,-0.728C0.413,-0.728 0.481,-0.708 0.526,-0.669C0.572,-0.63 0.595,-0.577 0.598,-0.511L0.453,-0.505C0.447,-0.542 0.434,-0.568 0.413,-0.584C0.393,-0.6 0.362,-0.608 0.322,-0.608C0.28,-0.608 0.247,-0.6 0.223,-0.583C0.208,-0.571 0.2,-0.557 0.2,-0.538C0.2,-0.521 0.207,-0.507 0.222,-0.495C0.24,-0.479 0.284,-0.463 0.354,-0.447C0.425,-0.43 0.477,-0.413 0.51,-0.395C0.544,-0.378 0.571,-0.353 0.59,-0.323C0.609,-0.292 0.618,-0.254 0.618,-0.208C0.618,-0.167 0.607,-0.129 0.584,-0.093C0.561,-0.057 0.529,-0.031 0.487,-0.013C0.446,0.004 0.394,0.013 0.332,0.013C0.241,0.013 0.172,-0.008 0.123,-0.05C0.075,-0.092 0.046,-0.153 0.036,-0.233Z" fill="#fff" fill-rule="nonzero" transform="rotate(30.757 -100.243 122.696) scale(19.59299)"/><path d="M0.718,0L0.561,0L0.499,-0.163L0.212,-0.163L0.153,0L0,0L0.279,-0.716L0.432,-0.716L0.718,0ZM0.452,-0.283L0.354,-0.549L0.257,-0.283L0.452,-0.283Z" fill="#fff" fill-rule="nonzero" transform="rotate(30.757 -106.778 146.452) scale(19.59299)"/><path d="M0.077,0L0.077,-0.71L0.221,-0.71L0.221,-0.121L0.581,-0.121L0.581,0L0.077,0Z" fill="#fff" fill-rule="nonzero" transform="rotate(30.757 -113.852 172.174) scale(19.59299)"/><path d="M0.073,0L0.073,-0.716L0.604,-0.716L0.604,-0.595L0.217,-0.595L0.217,-0.436L0.577,-0.436L0.577,-0.315L0.217,-0.315L0.217,-0.121L0.617,-0.121L0.617,0L0.073,0Z" fill="#fff" fill-rule="nonzero" transform="rotate(30.757 -119.836 193.93) scale(19.59299)"/><g><path d="M6.61,19.653C7.418,20.785 9.479,23.129 11.414,24.102C12.514,24.654 14.256,25.328 16.946,25.934C21.415,26.94 26.613,27.514 29.941,28.892C32.493,29.95 34.195,31.935 35.284,34.015C36.596,36.521 37.868,41.13 37.868,41.13L38.344,43.408C38.344,43.408 36.93,44.894 36.241,46.425C35.593,47.865 35.708,49.202 35.708,49.202L38.189,48.588C38.189,48.588 38.264,47.848 38.548,47.294C38.838,46.728 38.965,46.61 38.965,46.61C38.965,46.61 39.302,48.792 39.453,49.914C39.621,51.16 39.973,54.176 39.973,54.176L39.364,55.009C39.364,55.009 40.589,56.259 41.247,56.27C42.131,56.284 42.662,55.557 42.603,54.968C42.387,52.821 42.184,51.013 41.868,48.575C41.68,47.124 41.105,44.254 41.105,44.254C41.105,44.254 41.638,43.918 41.888,43.824C42.099,43.744 42.5,43.694 42.5,43.694C42.5,43.694 42.824,45.42 43.014,48.727C43.12,50.571 43.246,53.618 43.521,54.735C43.649,55.254 44.27,55.412 44.665,55.482C45.06,55.552 45.494,55.06 45.824,54.769C46.157,54.475 46.663,53.67 46.663,53.67L45.845,53.062L45.237,45.009C45.237,45.009 45.711,45.319 45.934,45.549C46.168,45.79 46.678,46.51 46.678,46.51L49.098,45.916C49.098,45.916 47.799,43.931 47.082,43.277C46.43,42.682 44.817,41.905 44.817,41.905C44.817,41.905 43.417,23.796 35.502,15.581C27.649,7.431 10.328,0.435 2.339,0.26C1.751,0.247 0.648,0.683 0.557,1.157C0.466,1.632 1.234,3.193 1.674,2.941C2.201,2.639 2.687,2.44 3.082,2.466C4.61,2.566 6.322,2.936 8.817,3.618C11.116,4.246 14.148,5.411 17.711,6.937C24.408,9.806 31.044,14.639 34.153,17.683C40.081,23.486 42.259,41.213 42.259,41.213L40.56,41.674C40.56,41.674 38.125,31.355 34.08,28.525C32.301,27.28 29.921,25.968 25.171,24.998C18.89,23.715 15.48,23.349 12.483,21.881C11.107,21.207 9.793,19.876 8.748,18.476C8.056,17.548 7.483,16.393 7.09,16.089C6.74,15.819 6.624,16.868 6.565,17.305C6.485,17.899 6.155,19.016 6.61,19.653Z" fill="#8e8881" transform="matrix(1 0 0 1 0 .01)"/><path d="M38.974,46.58C38.974,46.58 39.55,45.414 39.908,45.025C40.232,44.671 41.119,44.247 41.119,44.247L41.217,44.771C41.217,44.771 40.458,45.121 40.178,45.418C39.819,45.798 39.064,47.055 39.064,47.055L38.974,46.58Z" fill="#817d79" transform="matrix(1 0 0 1 0 .01)"/><path d="M38.991,46.394C38.991,46.394 39.55,45.414 39.908,45.025C40.232,44.671 41.116,44.265 41.116,44.265L41.217,44.771C41.217,44.771 40.458,45.121 40.178,45.418C39.819,45.798 39.104,46.913 39.104,46.913L38.991,46.394Z" fill="#817d79" transform="scale(-1 1) rotate(18.153 1.044 -217.846)"/><path d="M7.778,21.077C7.778,21.077 6.753,19.918 6.519,19.496C6.364,19.215 6.373,19.015 6.379,18.543C6.385,18.012 6.637,16.734 6.748,16.318C6.783,16.189 6.943,15.966 7.046,16.05C7.141,16.127 7.287,16.267 7.45,16.5C7.641,16.77 7.851,17.142 7.972,17.315C8.123,17.529 8.397,17.976 8.397,17.976L7.778,21.077Z" fill="#817d79" transform="matrix(1 0 0 1 0 .01)"/></g></svg>